<?xml version="1.0" encoding="UTF-8"?>
<svg width="96px" height="96px" viewBox="0 0 96 96" version="1.1" xmlns="http://www.w3.org/2000/svg" xmlns:xlink="http://www.w3.org/1999/xlink">
    <title>7A8D0BF0-C48C-415C-8855-0C3F20FE8C21</title>
    <g id="Page-1" stroke="none" stroke-width="1" fill="none" fill-rule="evenodd">
        <g id="Remita-1.5-LP(Front-Row-Icons)" transform="translate(-825.000000, -297.000000)">
            <g id="Group-69" transform="translate(792.000000, 298.000000)">
                <g id="Group-64" transform="translate(15.000000, 0.000000)">
                    <g id="Group-56">
                        <g id="Group-55">
                            <g id="Group-58">
                                <g id="Group-14">
                                    <g id="buy_airtime_featured_icon-copy" transform="translate(19.000000, 0.000000)">
                                        <path d="M46.9973271,8.41989243e-15 C21.0841121,8.41989243e-15 1.02788398e-12,21.0845118 1.02788398e-12,47 C1.02788398e-12,72.9154882 21.0841121,94 46.9973271,94 C72.9158879,94 94,72.9154882 94,47 C94,21.0845118 72.9158879,8.41989243e-15 46.9973271,8.41989243e-15" id="Fill-3" stroke="#888078" stroke-width="2"></path>
                                        <g id="XMLID_1250_" transform="translate(26.000000, 24.000000)" fill-rule="nonzero">
                                            <path d="M35.124991,0.180017517 L35.1257204,30.6373692 C37.1420757,30.9122099 38.7077363,32.8005871 38.7077363,35.0817549 L38.7077363,35.2283345 C38.7077363,37.5095023 37.1420757,39.3978795 35.1257204,39.6727202 L35.1247795,46.6104468 L7.56018902,46.6104468 L7.55974617,41.2550175 L6.42622412,41.2557669 C4.68773177,41.2557669 3.27350135,39.5967035 3.27350135,37.5574163 C3.27350135,36.98278 3.38579355,36.438334 3.58599096,35.9526912 C1.61552739,35.8222761 0.0467461746,33.899668 0.0467461746,31.5552201 C0.0467461746,30.212842 0.560998698,29.008762 1.3705694,28.199825 C0.561063246,27.3909785 0.0467461746,26.1868985 0.0467461746,24.8445204 C0.0467461746,23.144807 0.871222318,21.6668202 2.07573128,20.9319631 C1.52156353,20.1641625 1.18705671,19.1714689 1.18705671,18.0888163 C1.18705671,15.6587901 2.87224572,13.6819622 4.94367237,13.6819622 L7.55974617,13.6810175 L7.56018902,0.180017517 L35.124991,0.180017517 Z M28.3673768,37.0411928 L13.1222957,37.0402093 C13.1425469,37.2092526 13.1530198,37.3819266 13.1530198,37.5574163 C13.1530198,39.5967035 11.7387894,41.2557669 10.000297,41.2557669 L9.61374617,41.2550175 L9.61405941,44.5684256 L33.0711206,44.5684256 L33.0707462,39.7070175 L32.1070072,39.7071115 C30.4408279,39.7071115 29.0041005,38.6102135 28.3673768,37.0411928 Z M21.3424842,39.0181659 C22.1576868,39.0181659 22.8210171,39.6774591 22.8210171,40.4879585 C22.8212286,41.2986682 22.1576868,41.9579613 21.3424842,41.9579613 C20.5272817,41.9579613 19.8639514,41.2986682 19.8639514,40.4879585 C19.8639514,39.6774591 20.5272817,39.0181659 21.3424842,39.0181659 Z M10.748225,35.8349101 L10.588679,35.8776547 C10.3512598,35.9330299 10.1058525,35.9620742 9.85477048,35.9620742 L5.49680997,35.9615365 C5.06309903,36.3101556 4.77805131,36.8954718 4.77805131,37.5574163 C4.77805131,38.6234313 5.51731773,39.4907119 6.42622412,39.4907119 L10.000297,39.4907119 C10.9092034,39.4907119 11.6484698,38.6234313 11.6484698,37.5574163 C11.6484698,37.3782968 11.6275921,37.2047882 11.5885418,37.040062 L11.4005671,37.0409175 L11.4000684,36.5377393 C11.2416634,36.2396454 11.0160162,35.9955611 10.748225,35.8349101 Z M34.6175518,32.7059863 L32.1070072,32.7059863 C30.9110666,32.7059863 29.9376463,33.7715806 29.9376463,35.0817549 L29.9376463,35.2283345 C29.9376463,36.5382985 30.9110666,37.6041031 32.1070072,37.6041031 L34.6175518,37.6041031 C35.8139154,37.6041031 36.7873357,36.5385088 36.7873357,35.2283345 L36.7873357,35.0817549 C36.7873357,33.7717909 35.8139154,32.7059863 34.6175518,32.7059863 Z M33.0707462,30.6020175 L33.0707462,7.74301752 L9.61374617,7.74301752 L9.61374617,13.6810175 L9.91949595,13.6819622 C11.9909226,13.6819622 13.6763231,15.6587901 13.6763231,18.0888163 C13.6763231,19.4617401 13.1382657,20.6900004 12.2966022,21.4988166 C13.100888,22.3068708 13.6113861,23.5070514 13.6113861,24.8445204 C13.6113861,26.1868985 13.0971336,27.3909785 12.2875986,28.1999155 C13.0971336,29.008762 13.6113861,30.212842 13.6113861,31.5552201 C13.6113861,32.9237803 13.0768777,34.148595 12.239895,34.9574955 C12.2512885,34.9703282 12.2630805,34.9845194 12.2747758,34.9988203 L28.0187462,34.9990175 L28.0219712,34.8650863 C28.1255349,32.4957411 29.9183045,30.6029779 32.1070072,30.6029779 L33.0707462,30.6020175 Z M9.85477048,29.2513744 L3.80357336,29.2513744 C2.72058506,29.2513744 1.83959946,30.2847927 1.83959946,31.5552201 C1.83959946,32.8256475 2.72058506,33.8590658 3.80357336,33.8590658 L9.85477048,33.8590658 C10.9377588,33.8590658 11.8187444,32.8256475 11.8187444,31.5552201 C11.8187444,30.2847927 10.9377588,29.2513744 9.85477048,29.2513744 Z M9.85477048,22.5406747 L3.80357336,22.5406747 C2.72058506,22.5406747 1.83959946,23.574093 1.83959946,24.8445204 C1.83959946,26.1149477 2.72058506,27.1483661 3.80357336,27.1483661 L9.85477048,27.1483661 C10.9377588,27.1483661 11.8187444,26.1149477 11.8187444,24.8445204 C11.8187444,23.574093 10.9377588,22.5406747 9.85477048,22.5406747 Z M9.91928443,15.7849706 L4.94346085,15.7849706 C3.86047255,15.7849706 2.97948695,16.8183889 2.97948695,18.0888163 C2.97948695,19.3592436 3.86047255,20.3926619 4.94346085,20.3926619 L9.91928443,20.3926619 C11.0022727,20.3926619 11.8832583,19.3592436 11.8832583,18.0888163 C11.8832583,16.8183889 11.0022727,15.7849706 9.91928443,15.7849706 Z M33.0713321,2.22203865 L9.61405941,2.22203865 L9.61374617,5.70101752 L33.0707462,5.70101752 L33.0713321,2.22203865 Z" id="Combined-Shape" fill="#888078"></path>
                                            <path d="M16.901,21 L16.901,14.07 L18.049,21 L19.505,21 L20.569,13.972 L20.569,21 L22.025,21 L22.025,11.2 L19.883,11.2 L18.833,18.158 L17.699,11.2 L15.557,11.2 L15.557,21 L16.901,21 Z M25.175,21 C25.9496667,21 26.533,20.8016667 26.925,20.405 C27.317,20.0083333 27.513,19.432 27.513,18.676 L27.513,18.676 L27.513,17.878 C27.513,17.3553333 27.4266667,16.9143333 27.254,16.555 C27.0813333,16.1956667 26.785,15.9366667 26.365,15.778 C26.7103333,15.6193333 26.9623333,15.3766667 27.121,15.05 C27.2796667,14.7233333 27.359,14.308 27.359,13.804 L27.359,13.804 L27.359,13.454 C27.359,12.698 27.1793333,12.1333333 26.82,11.76 C26.4606667,11.3866667 25.8796667,11.2 25.077,11.2 L25.077,11.2 L22.753,11.2 L22.753,21 L25.175,21 Z M24.895,15.19 L24.293,15.19 L24.293,12.6 L25.035,12.6 C25.3056667,12.6 25.504,12.6793333 25.63,12.838 C25.756,12.9966667 25.819,13.2533333 25.819,13.608 L25.819,13.608 L25.819,14.154 C25.819,14.546 25.7373333,14.8166667 25.574,14.966 C25.4106667,15.1153333 25.1843333,15.19 24.895,15.19 L24.895,15.19 Z M25.175,19.6 L24.293,19.6 L24.293,16.59 L24.979,16.59 C25.3336667,16.59 25.588,16.674 25.742,16.842 C25.896,17.01 25.973,17.3226667 25.973,17.78 L25.973,17.78 L25.973,18.634 C25.973,18.998 25.9053333,19.25 25.77,19.39 C25.6346667,19.53 25.4363333,19.6 25.175,19.6 L25.175,19.6 Z M18.791,32.112 C19.547,32.112 20.1186667,31.8996667 20.506,31.475 C20.8933333,31.0503333 21.087,30.4413333 21.087,29.648 L21.087,29.648 L21.087,26.54 L18.931,26.54 L18.931,27.94 L19.631,27.94 L19.631,29.746 C19.631,30.1006667 19.5586667,30.348 19.414,30.488 C19.2693333,30.628 19.0756667,30.698 18.833,30.698 C18.5903333,30.698 18.3966667,30.628 18.252,30.488 C18.1073333,30.348 18.035,30.1006667 18.035,29.746 L18.035,29.746 L18.035,24.454 C18.035,24.0993333 18.1073333,23.8496667 18.252,23.705 C18.3966667,23.5603333 18.5903333,23.488 18.833,23.488 C19.0756667,23.488 19.2693333,23.5603333 19.414,23.705 C19.5586667,23.8496667 19.631,24.0993333 19.631,24.454 L19.631,24.454 L19.631,25.504 L21.087,25.504 L21.087,24.552 C21.087,23.7586667 20.8933333,23.1496667 20.506,22.725 C20.1186667,22.3003333 19.547,22.088 18.791,22.088 C18.035,22.088 17.4633333,22.3003333 17.076,22.725 C16.6886667,23.1496667 16.495,23.7586667 16.495,24.552 L16.495,24.552 L16.495,29.648 C16.495,30.4413333 16.6886667,31.0503333 17.076,31.475 C17.4633333,31.8996667 18.035,32.112 18.791,32.112 Z M24.195,32 C24.9696667,32 25.553,31.8016667 25.945,31.405 C26.337,31.0083333 26.533,30.432 26.533,29.676 L26.533,29.676 L26.533,28.878 C26.533,28.3553333 26.4466667,27.9143333 26.274,27.555 C26.1013333,27.1956667 25.805,26.9366667 25.385,26.778 C25.7303333,26.6193333 25.9823333,26.3766667 26.141,26.05 C26.2996667,25.7233333 26.379,25.308 26.379,24.804 L26.379,24.804 L26.379,24.454 C26.379,23.698 26.1993333,23.1333333 25.84,22.76 C25.4806667,22.3866667 24.8996667,22.2 24.097,22.2 L24.097,22.2 L21.773,22.2 L21.773,32 L24.195,32 Z M23.915,26.19 L23.313,26.19 L23.313,23.6 L24.055,23.6 C24.3256667,23.6 24.524,23.6793333 24.65,23.838 C24.776,23.9966667 24.839,24.2533333 24.839,24.608 L24.839,24.608 L24.839,25.154 C24.839,25.546 24.7573333,25.8166667 24.594,25.966 C24.4306667,26.1153333 24.2043333,26.19 23.915,26.19 L23.915,26.19 Z M24.195,30.6 L23.313,30.6 L23.313,27.59 L23.999,27.59 C24.3536667,27.59 24.608,27.674 24.762,27.842 C24.916,28.01 24.993,28.3226667 24.993,28.78 L24.993,28.78 L24.993,29.634 C24.993,29.998 24.9253333,30.25 24.79,30.39 C24.6546667,30.53 24.4563333,30.6 24.195,30.6 L24.195,30.6 Z" id="MBGB" fill="#887F78"></path>
                                        </g>
                                    </g>
                                </g>
                            </g>
                        </g>
                    </g>
                </g>
            </g>
        </g>
    </g>
</svg>