<?xml version="1.0" encoding="UTF-8"?>
<svg width="94px" height="94px" viewBox="0 0 94 94" version="1.1" xmlns="http://www.w3.org/2000/svg" xmlns:xlink="http://www.w3.org/1999/xlink">
    <!-- Generator: Sketch 43.1 (39012) - http://www.bohemiancoding.com/sketch -->
    <title>buy_airtime</title>
    <desc>Created with Sketch.</desc>
    <defs></defs>
    <g id="Page-1" stroke="none" stroke-width="1" fill="none" fill-rule="evenodd">
        <g id="remita_sprite_sheet" transform="translate(-657.000000, -400.000000)" fill-rule="nonzero" fill="#887F78">
            <g id="buy_airtime" transform="translate(657.000000, 400.000000)">
                <g id="XMLID_1310_">
                    <g id="XMLID_1311_">
                        <path d="M47.0774802,93.9322921 C21.2142178,93.9322921 0.172410891,72.8897871 0.172410891,47.0253614 C0.172410891,21.1609356 21.2142178,0.118430693 47.0774802,0.118430693 C72.9435347,0.118430693 93.9876683,21.1609356 93.9876683,47.0253614 C93.9876683,72.8897871 72.9435347,93.9322921 47.0774802,93.9322921 Z M47.0774802,2.24087624 C22.384797,2.24087624 2.29508911,22.3308168 2.29508911,47.0253614 C2.29508911,71.7192079 22.384797,91.8098465 47.0774802,91.8098465 C71.7729554,91.8098465 91.8649901,71.7192079 91.8649901,47.0253614 C91.8649901,22.3308168 71.7729554,2.24087624 47.0774802,2.24087624 Z" id="XMLID_1312_"></path>
                    </g>
                </g>
                <g id="XMLID_1250_" transform="translate(23.500000, 19.079208)">
                    <g id="XMLID_1298_" transform="translate(8.143564, 0.000000)">
                        <path d="M2.43190099,24.4837426 L2.43190099,22.6211931 C1.84277228,23.2175347 1.05377723,23.616104 0.172876238,23.7061485 L0.172876238,23.7752525 L0.256638614,23.7752525 C1.07006436,23.7752525 1.8199703,24.039802 2.43190099,24.4837426 Z" id="XMLID_1309_"></path>
                        <path d="M2.43190099,31.9083465 L2.43190099,30.4913663 C1.82020297,30.9350743 1.07006436,31.1998564 0.256638614,31.1998564 C1.07006436,31.1998564 1.8199703,31.4644059 2.43190099,31.9083465 Z" id="XMLID_1308_"></path>
                        <path d="M2.43190099,17.4051238 L2.43190099,2.45842574 L28.234901,2.45842574 L28.234901,35.0219802 L29.410599,35.0219802 C29.787297,35.0219802 30.1507327,35.0787525 30.4939257,35.1811287 L30.4939257,0.199168317 L0.172643564,0.199168317 L0.172643564,16.3201683 C1.05354455,16.4102129 1.8425396,16.8085495 2.43190099,17.4051238 Z" id="XMLID_1307_"></path>
                        <path d="M29.4103663,42.7679059 L28.2346683,42.7679059 L28.2346683,49.3097475 L2.43190099,49.3097475 L2.43190099,45.1025495 C2.32812871,45.1111584 2.22389109,45.1183713 2.11802475,45.1183713 L0.172643564,45.1183713 L0.172643564,51.569005 L30.4936931,51.569005 L30.4936931,42.6085248 C30.1505,42.7106683 29.7870644,42.7679059 29.4103663,42.7679059 Z" id="XMLID_1306_"></path>
                        <path d="M2.43190099,38.6402822 L2.43190099,37.9157376 C1.82020297,38.3596782 1.07006436,38.6244604 0.256638614,38.6244604 L2.11802475,38.6244604 C2.22389109,38.6244604 2.32812871,38.6314406 2.43190099,38.6402822 Z" id="XMLID_1299_"></path>
                    </g>
                    <g id="XMLID_1290_" transform="translate(9.306931, 6.282178)">
                        <rect id="XMLID_1291_" x="0.138905941" y="0.0262920792" width="28.0620248" height="2.25902475"></rect>
                    </g>
                    <path d="M23.4767327,46.4215743 C22.5800099,46.4215743 21.8503465,45.6921436 21.8503465,44.7951881 C21.8503465,43.8984653 22.5800099,43.1690347 23.4767327,43.1690347 C24.3734554,43.1690347 25.1031188,43.8984653 25.1031188,44.7951881 C25.1033515,45.6921436 24.3734554,46.4215743 23.4767327,46.4215743 Z" id="XMLID_1289_"></path>
                    <g id="XMLID_1251_" transform="translate(0.000000, 15.123762)">
                        <g id="XMLID_1267_" transform="translate(12.331683, 23.500000)">
                            <rect id="XMLID_1268_" x="0.208940594" y="0.0986534653" width="19.3237475" height="2.25902475"></rect>
                        </g>
                        <path d="M10.9114455,9.76506436 L5.4380396,9.76506436 C3.1594703,9.76506436 1.30576238,7.57793564 1.30576238,4.88939604 C1.30576238,2.20085644 3.1594703,0.0137277228 5.4380396,0.0137277228 L10.9114455,0.0137277228 C13.1900149,0.0137277228 15.0439554,2.20085644 15.0439554,4.88939604 C15.0439554,7.57793564 13.1897822,9.76506436 10.9114455,9.76506436 Z M5.43780693,2.3404604 C4.2465198,2.3404604 3.27743564,3.48381683 3.27743564,4.88939604 C3.27743564,6.29497525 4.2465198,7.43833168 5.43780693,7.43833168 L10.9112129,7.43833168 C12.1025,7.43833168 13.0715842,6.29497525 13.0715842,4.88939604 C13.0715842,3.48381683 12.1025,2.3404604 10.9112129,2.3404604 L5.43780693,2.3404604 Z" id="XMLID_1264_"></path>
                        <path d="M10.8402475,17.2394604 L4.18393069,17.2394604 C1.90536139,17.2394604 0.0514207921,15.0523317 0.0514207921,12.3637921 C0.0514207921,9.67525248 1.90512871,7.48812376 4.18393069,7.48812376 L10.8402475,7.48812376 C13.1188168,7.48812376 14.9725248,9.67525248 14.9725248,12.3637921 C14.9725248,15.0523317 13.1188168,17.2394604 10.8402475,17.2394604 Z M4.18393069,9.81485644 C2.99264356,9.81485644 2.02355941,10.9582129 2.02355941,12.3637921 C2.02355941,13.7693713 2.99264356,14.9127277 4.18393069,14.9127277 L10.8402475,14.9127277 C12.0315347,14.9127277 13.0006188,13.7693713 13.0006188,12.3637921 C13.0006188,10.9582129 12.0315347,9.81485644 10.8402475,9.81485644 L4.18393069,9.81485644 Z" id="XMLID_1261_"></path>
                        <path d="M10.8402475,24.6640644 L4.18393069,24.6640644 C1.90536139,24.6640644 0.0514207921,22.4769356 0.0514207921,19.788396 C0.0514207921,17.0998564 1.90512871,14.9127277 4.18393069,14.9127277 L10.8402475,14.9127277 C13.1188168,14.9127277 14.9725248,17.0998564 14.9725248,19.788396 C14.9725248,22.4769356 13.1188168,24.6640644 10.8402475,24.6640644 Z M4.18393069,17.2394604 C2.99264356,17.2394604 2.02355941,18.3828168 2.02355941,19.788396 C2.02355941,21.1939752 2.99264356,22.3373317 4.18393069,22.3373317 L10.8402475,22.3373317 C12.0315347,22.3373317 13.0006188,21.1939752 13.0006188,19.788396 C13.0006188,18.3828168 12.0315347,17.2394604 10.8402475,17.2394604 L4.18393069,17.2394604 Z" id="XMLID_1258_"></path>
                        <path d="M11.0003267,30.5209158 L7.06884653,30.5209158 C5.15650495,30.5209158 3.60085149,28.6853564 3.60085149,26.4291238 C3.60085149,24.1728911 5.15650495,22.3373317 7.06884653,22.3373317 L11.0003267,22.3373317 C12.9126683,22.3373317 14.4683218,24.1728911 14.4683218,26.4291238 C14.4683218,28.6853564 12.9126683,30.5209158 11.0003267,30.5209158 Z M7.06884653,24.2901584 C6.0690495,24.2901584 5.25585644,25.249703 5.25585644,26.4291238 C5.25585644,27.6085446 6.0690495,28.5680891 7.06884653,28.5680891 L11.0003267,28.5680891 C12.0001238,28.5680891 12.8133168,27.6085446 12.8133168,26.4291238 C12.8133168,25.249703 11.9998911,24.2901584 11.0003267,24.2901584 L7.06884653,24.2901584 Z" id="XMLID_1255_"></path>
                        <path d="M38.0793069,28.8075099 L35.3177079,28.8075099 C32.8371782,28.8075099 30.8189703,26.5845495 30.8189703,23.8522673 L30.8189703,23.6900941 C30.8189703,20.9578119 32.8371782,18.7348515 35.3177079,18.7348515 L38.0793069,18.7348515 C40.5600693,18.7348515 42.5785099,20.9578119 42.5785099,23.6900941 L42.5785099,23.8522673 C42.5785099,26.5845495 40.5600693,28.8075099 38.0793069,28.8075099 Z M35.3177079,21.0615842 C34.0021733,21.0615842 32.9314109,22.2405396 32.9314109,23.6900941 L32.9314109,23.8522673 C32.9314109,25.3015891 34.0021733,26.4807772 35.3177079,26.4807772 L38.0793069,26.4807772 C39.3953069,26.4807772 40.4660693,25.3018218 40.4660693,23.8522673 L40.4660693,23.6900941 C40.4660693,22.2407723 39.3953069,21.0615842 38.0793069,21.0615842 L35.3177079,21.0615842 Z" id="XMLID_1252_"></path>
                    </g>
                    <g id="XMLID_1269_" transform="translate(17.217822, 18.148515)" stroke="#887F78" stroke-linecap="round" stroke-linejoin="round">
                        <g id="XMLID_1557_" transform="translate(2.094059, 0.000000)">
                            <g id="XMLID_1558_">
                                <path d="M8.91441089,12.2786337 L6.26216832,12.2786337 L1.98074752,3.03010396 L1.92025248,3.03010396 C2.00564356,4.6634703 2.04868812,5.82823267 2.04868812,6.52532178 L2.04868812,12.2786337 L0.184044554,12.2786337 L0.184044554,0.0528168317 L2.81581188,0.0528168317 L7.09048515,9.20944059 L7.13771782,9.20944059 C7.06977723,7.6209802 7.03650495,6.49740099 7.03650495,5.84009901 L7.03650495,0.053049505 L8.91441089,0.053049505 L8.91441089,12.2786337 Z" id="XMLID_1559_"></path>
                            </g>
                        </g>
                        <g id="XMLID_1552_" transform="translate(0.000000, 7.678218)">
                            <g id="XMLID_21_">
                                <rect id="XMLID_22_" x="0.113311881" y="0.132391089" width="12.291198" height="1.82322772"></rect>
                            </g>
                        </g>
                        <g id="XMLID_1270_" transform="translate(0.000000, 2.792079)">
                            <g id="XMLID_18_">
                                <rect id="XMLID_19_" x="0.113311881" y="0.0349009901" width="12.291198" height="1.82322772"></rect>
                            </g>
                        </g>
                    </g>
                </g>
            </g>
        </g>
    </g>
</svg>
