<?xml version="1.0" encoding="UTF-8"?>
<svg width="96px" height="96px" viewBox="0 0 96 96" version="1.1" xmlns="http://www.w3.org/2000/svg" xmlns:xlink="http://www.w3.org/1999/xlink">
    <title>82488A64-2833-46ED-A475-86DFBB830C72</title>
    <g id="Page-1" stroke="none" stroke-width="1" fill="none" fill-rule="evenodd">
        <g id="Remita-1.5-LP(Front-Row-Icons)" transform="translate(-995.000000, -297.000000)">
            <g id="Group-17" transform="translate(974.000000, 298.000000)">
                <g id="electricity_light_up_icon" transform="translate(22.000000, 0.000000)">
                    <g id="electricity_icon_step_3">
                        <g id="Group" transform="translate(26.000000, 18.000000)" fill="#888078" fill-rule="nonzero">
                            <g id="Combined-Shape">
                                <path d="M20.104,0.505 C20.793,0.505 21.384,0.604 21.972,0.604 C31.215,1.586 38.687,9.058 39.669,18.398 C40.358,24.691 38.097,30.787 33.576,35.21 C31.118,37.571 29.446,40.324 28.956,42.978 L28.956,42.978 L28.956,54.581 C28.956,55.17 28.563,55.563 27.973,55.563 L27.973,55.563 L26.498,55.563 L24.728,57.922 C24.04,58.905 22.86,59.495 21.582,59.495 L21.582,59.495 L18.632,59.495 C17.353,59.495 16.272,58.905 15.486,57.922 L15.486,57.922 L13.716,55.563 L12.241,55.563 C11.651,55.563 11.257,55.169 11.257,54.579 L11.257,54.579 L11.257,42.978 C10.667,40.323 9.094,37.57 6.636,35.21 C2.113,30.884 -0.148,24.69 0.54,18.398 C1.523,9.157 8.995,1.685 18.236,0.604 C18.826,0.604 19.416,0.505 20.104,0.505 Z M24.037,55.562 L16.17,55.562 L17.056,56.742 C17.449,57.233 18.039,57.529 18.629,57.529 L18.629,57.529 L21.579,57.529 C22.169,57.529 22.758,57.233 23.152,56.742 L23.152,56.742 L24.037,55.562 Z M26.986,43.764 L13.221,43.764 L13.221,45.73 L19.121,45.73 C19.71,45.73 20.103,46.123 20.103,46.712 C20.103,47.302 19.711,47.696 19.121,47.696 L19.121,47.696 L13.221,47.696 L13.221,49.662 L16.17,49.662 C16.76,49.662 17.154,50.056 17.154,50.645 C17.154,51.234 16.76,51.627 16.17,51.627 L16.17,51.627 L13.221,51.627 L13.221,53.594 L26.986,53.594 L26.986,51.627 L21.086,51.627 C20.499,51.627 20.104,51.234 20.104,50.645 C20.104,50.056 20.498,49.661 21.086,49.661 L21.086,49.661 L26.986,49.661 L26.986,47.696 L24.037,47.696 C23.448,47.696 23.054,47.303 23.054,46.712 C23.054,46.124 23.447,45.73 24.037,45.73 L24.037,45.73 L26.986,45.73 L26.986,43.764 Z M20.103,2.471 C19.514,2.471 19.022,2.569 18.53,2.569 C10.175,3.553 3.488,10.238 2.506,18.595 C1.916,24.298 3.882,29.804 8.011,33.736 C10.468,36.194 12.239,38.946 13.025,41.798 L13.025,41.798 L27.183,41.798 C27.969,38.946 29.74,36.194 32.197,33.736 C36.326,29.803 38.293,24.298 37.701,18.595 C36.817,10.238 30.034,3.552 21.676,2.569 C21.185,2.569 20.693,2.471 20.103,2.471 Z M20.104,14.5 C23.654,14.5 26.542,17.388 26.542,20.938 C26.542,24.0637436 24.2995753,26.6692295 21.3391793,27.2485048 L21.104,27.29 L21.104,40.625 L19.104,40.625 L19.1029949,27.2896848 C16.0279736,26.805844 13.667,24.1463027 13.667,20.938 C13.667,17.388 16.555,14.5 20.104,14.5 Z M20.104,16.5 C17.658,16.5 15.667,18.491 15.667,20.938 C15.667,22.9675172 17.0401653,24.6744851 18.9035194,25.2002294 L19.105,25.252 L19.348,25.3020156 C19.5938125,25.3474375 19.84525,25.375 20.104,25.375 C20.36275,25.375 20.6141875,25.3474375 20.86,25.3020156 L21.104,25.251 L21.3054806,25.2002294 C23.1688347,24.6744851 24.542,22.9675172 24.542,20.938 C24.542,18.491 22.551,16.5 20.104,16.5 Z M6.74999985,17.0000001 L10.6471142,19.2500001 L9.89711417,20.5490382 L5.99999985,18.2990382 L6.74999985,17.0000001 Z M32.8971142,17.0000002 L33.6471142,18.2990383 L29.7499999,20.5490383 L28.9999999,19.2500002 L32.8971142,17.0000002 Z M12.2990381,10.0000001 L14.5490381,13.8971144 L13.25,14.6471144 L11,10.7500001 L12.2990381,10.0000001 Z M27.2254809,9.92644284 L28.5245191,10.6764428 L26.2745191,14.5735572 L24.9754809,13.8235572 L27.2254809,9.92644284 Z M20.5,8 L20.5,12.5 L19,12.5 L19,8 L20.5,8 Z"></path>
                            </g>
                        </g>
                        <g id="Group" transform="translate(39.000000, 32.000000)"></g>
                        <path d="M46.998,0 C21.082,0 0,21.084 0,47 C0,72.916 21.082,94 46.998,94 C72.914,94 94,72.916 94,47 C94,21.084 72.914,0 46.998,0 Z" id="Shape" stroke="#888078" stroke-width="2"></path>
                    </g>
                    <path d="M47.1000061,43.2760015 L47.1000061,37.6500015 L45.1000061,37.6500015 L45.1000061,43.2760015 C45.4230061,43.3510015 45.7550061,43.4000015 46.1000061,43.4000015 C46.4450061,43.4000015 46.7770061,43.3510015 47.1000061,43.2760015 Z" id="Shape" fill="#888078" fill-rule="nonzero"></path>
                </g>
            </g>
        </g>
    </g>
</svg>