<?xml version="1.0" encoding="UTF-8"?>
<svg width="97px" height="97px" viewBox="0 0 97 97" version="1.1" xmlns="http://www.w3.org/2000/svg" xmlns:xlink="http://www.w3.org/1999/xlink">
    <title>76EFFBE5-6646-433E-BF1C-F980F405CC76</title>
    <g id="Page-1" stroke="none" stroke-width="1" fill="none" fill-rule="evenodd">
        <g id="Remita-1.5-LP(Front-Row-Icons)" transform="translate(-993.000000, -488.000000)">
            <g id="Group-16" transform="translate(963.000000, 489.000000)">
                <g id="Group-20">
                    <g id="pay_bills_icon" transform="translate(31.000000, 0.000000)">
                        <circle id="Oval-55" stroke="#888078" stroke-width="2" cx="47.5" cy="47.5" r="47.5"></circle>
                        <g id="945944" transform="translate(29.000000, 24.000000)" fill="#888078" fill-rule="nonzero">
                            <path d="M32.12199,0.26361 C32.3793,0.00639 32.76639,-0.07083 33.10281,0.06858 C33.43905,0.2079 33.65838,0.53613 33.65838,0.90009 L33.65838,0.90009 L33.65838,22.14009 L40.31946,22.14009 C40.81653,22.14009 41.21946,22.54293 41.21946,23.04 L41.21946,23.04 L41.21946,41.40018 C41.21946,43.98066 39.12012,46.08 36.53964,46.08 L36.53964,46.08 L4.68054,46.08 C2.10006,46.08 0.00041850819,43.98066 0.00041850819,41.40018 L0.00041850819,41.40018 L0.00041850819,0.92376 C-0.00549,0.68301 0.08424,0.44064 0.26928,0.25875 C0.62163,-0.08739 1.18656,-0.08559 1.53585,0.2637 L1.53585,0.2637 L4.08528,2.81322 L6.6348,0.2637 C6.98634,-0.08775 7.55622,-0.08775 7.90767,0.2637 L7.90767,0.2637 L10.45701,2.81322 L13.00653,0.2637 C13.35798,-0.08775 13.92786,-0.08775 14.27931,0.2637 L14.27931,0.2637 L16.82892,2.81322 L19.37844,0.2637 C19.72998,-0.08775 20.29986,-0.08775 20.65131,0.2637 L20.65131,0.2637 L23.20056,2.81322 L25.75008,0.2637 C26.10162,-0.08775 26.6715,-0.08775 27.02295,0.2637 L27.02295,0.2637 L29.57238,2.81313 Z M26.38701,2.17278 L23.83749,4.7223 C23.48595,5.07375 22.91607,5.07375 22.56462,4.7223 L22.56462,4.7223 L20.0151,2.17278 L17.46558,4.7223 C17.11413,5.07375 16.54425,5.07375 16.1928,4.7223 L16.1928,4.7223 L13.64319,2.17278 L11.09367,4.7223 C10.74213,5.07375 10.17225,5.07375 9.8208,4.7223 L9.8208,4.7223 L7.27128,2.17278 L4.72176,4.7223 C4.37022,5.07375 3.80034,5.07375 3.44889,4.7223 L3.44889,4.7223 L1.80063,3.07404 L1.80063,41.40009 C1.80063,42.98805 3.09249,44.28 4.68054,44.28 L4.68054,44.28 L32.85531,44.28 C32.23278,43.48521 31.86018,42.48567 31.86018,41.40009 L31.86018,41.40009 L31.86018,23.06439 C31.85991,23.0562 31.85892,23.04819 31.85892,23.04 L31.85892,23.04 L31.85892,3.07278 L30.20931,4.7223 C29.85795,5.07375 29.28807,5.07375 28.93653,4.7223 L28.93653,4.7223 L26.38701,2.17278 Z M39.41946,23.94 L33.65964,23.94 L33.65964,41.40009 C33.65964,42.98805 34.95159,44.28 36.53955,44.28 C38.12751,44.28 39.41946,42.98805 39.41946,41.40009 L39.41946,41.40009 L39.41946,23.94 Z M26.3268,36.18027 C26.82387,36.18027 27.2268,36.5832 27.2268,37.08027 C27.2268,37.5391038 26.883475,37.9177237 26.4396968,37.9732579 L26.3268,37.98027 L12.06873,37.98027 C11.57166,37.98027 11.16873,37.57734 11.16873,37.08027 C11.16873,36.6214362 11.512055,36.2428163 11.9558332,36.1872821 L12.06873,36.18027 L26.3268,36.18027 Z M7.33212,36.18027 C7.56882,36.18027 7.80102,36.27657 7.96842,36.44397 C8.13582,36.61137 8.23212,36.84357 8.23212,37.08027 C8.23212,37.31697 8.13582,37.54917 7.96842,37.71657 C7.80102,37.88397 7.56882,37.98027 7.33212,37.98027 C7.09542,37.98027 6.86322,37.88397 6.69582,37.71657 C6.52842,37.54917 6.43212,37.31697 6.43212,37.08027 C6.43212,36.84357 6.52842,36.61137 6.69582,36.44397 C6.86322,36.27657 7.09542,36.18027 7.33212,36.18027 Z M26.3268,30.24045 C26.82387,30.24045 27.2268,30.64338 27.2268,31.14045 C27.2268,31.5992838 26.883475,31.9779037 26.4396968,32.0334379 L26.3268,32.04045 L12.06873,32.04045 C11.57166,32.04045 11.16873,31.63752 11.16873,31.14045 C11.16873,30.6816162 11.512055,30.3029963 11.9558332,30.2474621 L12.06873,30.24045 L26.3268,30.24045 Z M7.33212,30.24045 C7.56882,30.24045 7.80102,30.33675 7.96842,30.50415 C8.13582,30.67155 8.23212,30.90375 8.23212,31.14045 C8.23212,31.37715 8.13582,31.60935 7.96842,31.77675 C7.80102,31.94415 7.56882,32.04045 7.33212,32.04045 C7.09542,32.04045 6.86322,31.94415 6.69582,31.77675 C6.52842,31.60935 6.43212,31.37715 6.43212,31.14045 C6.43212,30.90375 6.52842,30.67155 6.69582,30.50415 C6.86322,30.33675 7.09542,30.24045 7.33212,30.24045 Z M26.3268,24.30063 C26.82387,24.30063 27.2268,24.70356 27.2268,25.20063 C27.2268,25.6594638 26.883475,26.0380837 26.4396968,26.0936179 L26.3268,26.10063 L12.06873,26.10063 C11.57166,26.10063 11.16873,25.6977 11.16873,25.20063 C11.16873,24.7417962 11.512055,24.3631763 11.9558332,24.3076421 L12.06873,24.30063 L26.3268,24.30063 Z M7.33212,24.30063 C7.56882,24.30063 7.80102,24.39693 7.96842,24.56433 C8.13582,24.73173 8.23212,24.96393 8.23212,25.20063 C8.23212,25.43733 8.13582,25.66953 7.96842,25.83693 C7.80102,26.00433 7.56882,26.10063 7.33212,26.10063 C7.09542,26.10063 6.86322,26.00433 6.69582,25.83693 C6.52842,25.66953 6.43212,25.43733 6.43212,25.20063 C6.43212,24.96393 6.52842,24.73173 6.69582,24.56433 C6.86322,24.39693 7.09542,24.30063 7.33212,24.30063 Z" id="Combined-Shape" stroke="#898079" stroke-width="0.2"></path>
                            <path d="M14.8808511,8 L15.933,10.257 L19.037,10.257 L19.0376064,8.00101064 L20.8870745,8.00101064 L20.887,10.257 L22.517234,10.257766 L22.517234,12.0546809 L20.887,12.054 L20.887,15.171 L22.517234,15.1714894 L22.517234,16.9694149 L20.887,16.969 L20.8870745,20.0559043 L18.2755851,20.0559043 L16.848,16.969 L14.124,16.969 L14.1248936,20.0559043 L12.2885638,20.0559043 L12.288,16.969 L11,16.9694149 L11,15.1714894 L12.288,15.171 L12.288,12.054 L11,12.0546809 L11,10.257766 L12.288,10.257 L12.2885638,8 L14.8808511,8 Z M14.575,12.054 L14.0536453,12.0563822 C14.0964932,12.9930989 14.1201316,13.716879 14.1242443,14.228671 L14.124,15.171 L16.017,15.171 L14.575,12.054 Z M19.037,12.054 L16.771,12.054 L18.224,15.171 L19.0671423,15.1700807 C19.0474517,14.5467739 19.0376064,14.0590511 19.0376064,13.7070745 L19.037,12.054 Z" id="Combined-Shape"></path>
                        </g>
                    </g>
                </g>
            </g>
        </g>
    </g>
</svg>