<?xml version="1.0" encoding="UTF-8"?>
<svg width="96px" height="96px" viewBox="0 0 96 96" version="1.1" xmlns="http://www.w3.org/2000/svg" xmlns:xlink="http://www.w3.org/1999/xlink">
    <title>1589639C-32AF-40DD-87B7-559292B895C0</title>
    <g id="Page-1" stroke="none" stroke-width="1" fill="none" fill-rule="evenodd">
        <g id="Remita-1.5-LP(Front-Row-Icons)" transform="translate(-1161.000000, -297.000000)">
            <g id="Group-69" transform="translate(792.000000, 298.000000)">
                <g id="Group-66" transform="translate(344.000000, 0.000000)">
                    <g id="Group-60-Copy">
                        <g id="Group-62">
                            <g id="Group-61">
                                <g id="Group-27">
                                    <g id="Group-19">
                                        <g id="Group-18" transform="translate(26.000000, 0.000000)">
                                            <g id="pay_rrr_icon">
                                                <path d="M46.998,0 C21.082,0 0,21.084 0,47 C0,72.916 21.082,94 46.998,94 C72.914,94 94,72.916 94,47 C94,21.084 72.914,0 46.998,0 Z" id="Shape" stroke="#888078" stroke-width="2"></path>
                                                <path d="M35.1349459,33.7421384 L35.1349459,36.1446541 C35.1852012,36.6588881 34.9358993,37.15678 34.4916976,37.4293138 C34.0474959,37.7018475 33.4852857,37.7018475 33.0410841,37.4293138 C32.5968824,37.15678 32.3475805,36.6588881 32.3978358,36.1446541 L32.3978358,32.3710692 C32.3944388,32.0086006 32.5377951,31.659823 32.7960118,31.4023295 C33.0542285,31.1448361 33.4058881,31 33.7727562,31 L59.8580522,31 C60.2227087,31.0033207 60.571093,31.1496415 60.8265564,31.4067702 C61.0820199,31.6638989 61.223634,32.0107705 61.2202419,32.3710692 L61.2202419,36.1446541 C61.2704972,36.6588881 61.0211953,37.15678 60.5769936,37.4293138 C60.1327919,37.7018475 59.5705817,37.7018475 59.1263801,37.4293138 C58.6821784,37.15678 58.4328765,36.6588881 58.4831318,36.1446541 L58.4831318,33.7421384 L35.1349459,33.7421384 Z M58.4831318,57.8553459 C58.4328765,57.3411119 58.6821784,56.84322 59.1263801,56.5706862 C59.5705817,56.2981525 60.1327919,56.2981525 60.5769936,56.5706862 C61.0211953,56.84322 61.2704972,57.3411119 61.2202419,57.8553459 L61.2202419,61.6289308 C61.223634,61.9892295 61.0820199,62.3361011 60.8265564,62.5932298 C60.571093,62.8503585 60.2227087,62.9966793 59.8580522,63 L33.7727562,63 C33.4058881,63 33.0542285,62.8551639 32.7960118,62.5976705 C32.5377951,62.340177 32.3944388,61.9913994 32.3978358,61.6289308 L32.3978358,57.8553459 C32.3475805,57.3411119 32.5968824,56.84322 33.0410841,56.5706862 C33.4852857,56.2981525 34.0474959,56.2981525 34.4916976,56.5706862 C34.9358993,56.84322 35.1852012,57.3411119 35.1349459,57.8553459 L35.1349459,60.2578616 L58.4831318,60.2578616 L58.4831318,57.8553459 Z M30.0808402,46.2075472 L31.0738383,46.2075472 C31.8428624,46.2772561 32.6152084,46.1149842 33.2889879,45.7421384 C33.7682617,45.4017781 34.0335648,44.839384 33.9891789,44.2578616 C34.04195,43.6857006 33.7668366,43.1323409 33.2762572,42.8238994 C32.593339,42.4913357 31.8333429,42.3437572 31.0738383,42.3962264 L30.0808402,42.3962264 L30.0808402,46.2075472 Z M30.0808402,48.6477987 L30.0808402,54.081761 L27,54.081761 L27,39.918239 L31.2266073,39.918239 C32.7628378,39.8030027 34.2963986,40.173002 35.6059835,40.9748428 C36.5883261,41.7345745 37.1230059,42.927945 37.0318269,44.1572327 C37.0437947,44.9559714 36.7936798,45.7370665 36.3189052,46.3836478 C35.812415,47.0629931 35.1248437,47.5899287 34.332909,47.9056604 C36.5056227,51.0922432 37.9272226,53.1509434 38.5977085,54.081761 L35.1858689,54.081761 L31.7231063,48.6477987 L30.0808402,48.6477987 Z M44.5684278,46.2075472 L45.5614258,46.2075472 C46.3092862,46.2645248 47.0575713,46.1026567 47.7129217,45.7421384 C48.1921955,45.4017781 48.4574986,44.839384 48.4131127,44.2578616 C48.4658838,43.6857006 48.1907704,43.1323409 47.700191,42.8238994 C47.0218629,42.4912233 46.2659208,42.3435785 45.5105029,42.3962264 L44.5684278,42.3962264 L44.5684278,46.2075472 Z M44.5684278,48.6477987 L44.5684278,54.081761 L41.5003183,54.081761 L41.5003183,39.918239 L45.7269255,39.918239 C47.2630104,39.8047509 48.7960307,40.1746198 50.1063017,40.9748428 C51.0730944,41.7454631 51.600188,42.9325003 51.5194144,44.1572327 C51.5359983,44.9546805 51.2903033,45.7359232 50.8192234,46.3836478 C50.3107461,47.0662636 49.6180993,47.593708 48.8204965,47.9056604 C51.0101846,51.0880503 52.4232973,53.1509434 53.085296,54.081761 L49.6734564,54.081761 L46.2106938,48.6477987 L44.5684278,48.6477987 Z M58.572247,45.9937107 L59.5652451,45.9937107 C60.3046176,46.0457088 61.0433269,45.8839984 61.6912794,45.5283019 C62.1657488,45.1850632 62.4259975,44.6231673 62.3787397,44.0440252 C62.4236243,43.4798045 62.1556564,42.9358311 61.6785487,42.6226415 C61.0009435,42.3020717 60.2512665,42.159126 59.5015913,42.2075472 L58.572247,42.2075472 L58.572247,45.9937107 Z M58.572247,48.408805 L58.572247,53.7924528 L55.529599,53.7924528 L55.529599,39.7672956 L59.718014,39.7672956 C61.2360119,39.6573465 62.7504938,40.0226403 64.0464672,40.8113208 C65.0151354,41.5685085 65.539905,42.7516285 65.4468491,43.9685535 C65.4555155,44.7551691 65.2151587,45.5247949 64.7593889,46.1698113 C64.2504914,46.8386522 63.5689455,47.3599954 62.7861235,47.6792453 C64.9376194,50.836478 66.350732,52.8742138 67,53.7924528 L63.6263526,53.7924528 L60.2017823,48.408805 L58.572247,48.408805 Z" id="Combined-Shape" fill="#887F78" fill-rule="nonzero"></path>
                                            </g>
                                        </g>
                                    </g>
                                </g>
                            </g>
                        </g>
                    </g>
                </g>
            </g>
        </g>
    </g>
</svg>