<?xml version="1.0" encoding="UTF-8"?>
<svg width="97px" height="97px" viewBox="0 0 97 97" version="1.1" xmlns="http://www.w3.org/2000/svg" xmlns:xlink="http://www.w3.org/1999/xlink">
    <title>00F35D1A-FCD8-46F1-9D5D-AB17342C2600</title>
    <g id="Page-1" stroke="none" stroke-width="1" fill="none" fill-rule="evenodd">
        <g id="Remita-1.5-LP(Front-Row-Icons)" transform="translate(-659.000000, -488.000000)">
            <g id="Group-16-Copy-2" transform="translate(626.000000, 489.000000)">
                <g id="Group-6">
                    <g id="Group-9">
                        <g id="pay_biller_mobile" transform="translate(34.000000, 0.000000)">
                            <circle id="Oval-55" stroke="#888078" stroke-width="2" cx="47.5" cy="47.5" r="47.5"></circle>
                            <g id="Page-1" transform="translate(32.448848, 15.847798)" fill="#888078" fill-rule="nonzero">
                                <path d="M21.2011702,8.99973404 L15.2788298,0.600319149 C15.2768085,0.597287234 15.2737766,0.596276596 15.2707447,0.593244681 C15.1979787,0.490159574 15.1039894,0.405265957 14.9968617,0.334521277 C14.9645213,0.313297872 14.9281383,0.301170213 14.892766,0.282978723 C14.8381915,0.255691489 14.7876596,0.220319149 14.7290426,0.20212766 C14.7037766,0.194042553 14.6775,0.197074468 14.652234,0.192021277 C14.6087766,0.181914894 14.5673404,0.17787234 14.5228723,0.173829787 C14.4389894,0.165744681 14.3571277,0.166755319 14.2742553,0.178882979 C14.2328191,0.184946809 14.1944149,0.191010638 14.1529787,0.201117021 C14.0539362,0.227393617 13.9629787,0.268829787 13.8750532,0.323404255 C13.8568617,0.334521277 13.8366489,0.335531915 13.8194681,0.347659574 C13.8154255,0.350691489 13.8134043,0.355744681 13.8083511,0.358776596 C13.7123404,0.428510638 13.6254255,0.512393617 13.5567021,0.615478723 L7.63739362,9.38579787 C7.31398936,9.86484043 7.43930851,10.5156915 7.91835106,10.8390957 C8.39638298,11.1625 9.04521277,11.0371809 9.36962766,10.5581383 L13.3798404,4.6206383 L13.3798404,23.263883 C13.3798404,23.8419681 13.847766,24.3109043 14.4248404,24.3109043 C15.0019149,24.3109043 15.4708511,23.8419681 15.4708511,23.263883 L15.4708511,4.50138298 L19.4942021,10.2074468 C19.6963298,10.4964894 20.0207447,10.6501064 20.3481915,10.6501064 C20.5573936,10.6501064 20.7676064,10.5874468 20.9515426,10.4580851 C21.4214894,10.1255851 21.5346809,9.47271277 21.2011702,8.99973404 Z" id="Shape"></path>
                                <polyline id="Fill-9" points="18.393617 12.945266 28.4545213 12.945266 28.4545213 60.5382447 0.396170213 60.5382447 0.396170213 12.945266 10.4025 12.945266 10.4025 15.0382979 2.48617021 15.0382979 2.48617021 58.4452128 26.3645213 58.4452128 26.3645213 15.0382979 18.393617 15.0382979"></polyline>
                                <polygon id="Fill-11" points="18.393617 20.698883 27.4095213 20.698883 27.4095213 18.6058511 18.393617 18.6058511"></polygon>
                                <polygon id="Fill-13" points="1.44117021 20.698883 10.4025 20.698883 10.4025 18.6058511 1.44117021 18.6058511"></polygon>
                                <polygon id="Fill-14" points="1.44117021 49.9154255 27.4095213 49.9154255 27.4095213 47.8223936 1.44117021 47.8223936"></polygon>
                                <path d="M14.4248404,55.7700532 C13.5951064,55.7700532 12.92,55.0939362 12.92,54.2621809 C12.92,53.4324468 13.5951064,52.7563298 14.4248404,52.7563298 C15.2545745,52.7563298 15.9296809,53.4324468 15.9296809,54.2621809 C15.9306915,55.0939362 15.2555851,55.7700532 14.4248404,55.7700532" id="Fill-15"></path>
                                <path d="M18.9727128,40.6549468 L16.3602128,40.6549468 L12.1428191,31.5349468 L12.0831915,31.5349468 C12.1670745,33.1459043 12.2095213,34.2939894 12.2095213,34.982234 L12.2095213,40.6549468 L10.3731915,40.6549468 L10.3731915,28.5990426 L12.9654787,28.5990426 L17.1757979,37.6280851 L17.2222872,37.6280851 C17.1555851,36.0615957 17.122234,34.9539362 17.122234,34.306117 L17.122234,28.6000532 L18.9717021,28.6000532 L18.9717021,40.6549468 L18.9727128,40.6549468 Z" id="Fill-16"></path>
                                <polygon id="Rectangle-path" points="9.08462766 35.7705319 20.6018617 35.7705319 20.6018617 37.5684574 9.08462766 37.5684574"></polygon>
                                <polygon id="Rectangle-path" points="9.08462766 30.8568085 20.6018617 30.8568085 20.6018617 32.6537234 9.08462766 32.6537234"></polygon>
                            </g>
                        </g>
                    </g>
                </g>
            </g>
        </g>
    </g>
</svg>