<svg xmlns="http://www.w3.org/2000/svg" width="97" height="96" viewBox="0 0 97 96">
  <g fill="none" fill-rule="evenodd" transform="translate(1 1)">
    <path stroke="#888078" stroke-width="2" d="M47.748,0 C21.832,0 0.75,21.084 0.75,47 C0.75,72.916 21.832,94 47.748,94 C73.664,94 94.75,72.916 94.75,47 C94.75,21.084 73.664,0 47.748,0 Z"/>
    <g fill="#888078" fill-rule="nonzero" transform="translate(24 25)">
      <path stroke="#888078" stroke-width=".5" d="M51.188,7.804 L48.959,5.478 C48.644,5.148 48.225,4.967 47.778,4.967 C47.333,4.967 46.914,5.148 46.597,5.478 L46.505,5.574 L46.505,4.012 C46.505,2.059 44.983,0.47 43.111,0.47 L3.469,0.47 C1.598,0.47 0.076,2.058 0.076,4.012 L0.076,39.988 C0.076,41.94 1.598,43.529 3.469,43.529 L43.112,43.529 C44.983,43.529 46.506,41.94 46.506,39.988 L46.506,15.154 L51.189,10.268 C51.838,9.589 51.838,8.483 51.188,7.804 Z M44.889,39.988 C44.889,41.01 44.092,41.842 43.112,41.842 L3.469,41.842 C2.489,41.842 1.692,41.011 1.692,39.988 L1.692,4.013 C1.692,2.99 2.489,2.158 3.469,2.158 L43.112,2.158 C44.092,2.158 44.889,2.99 44.889,4.013 L44.889,7.261 L24.679,28.352 L23.515,30.039 L21.053,35.549 L12.949,35.549 C12.503,35.549 12.142,35.926 12.142,36.391 C12.142,36.858 12.503,37.235 12.949,37.235 L21.568,37.235 L21.568,37.235 C21.683,37.235 21.799,37.21 21.909,37.156 L28.373,34.009 C28.457,33.967 28.535,33.91 28.602,33.841 L44.889,16.84 L44.889,39.988 L44.889,39.988 Z M25.102,30.479 L27.231,32.701 L23.239,34.645 L25.102,30.479 Z M28.462,31.6 L26.156,29.196 L45.191,9.33 L47.497,11.735 L28.462,31.6 Z M50.044,9.076 L48.64,10.542 L46.334,8.137 L47.739,6.671 C47.76,6.649 47.795,6.649 47.815,6.671 L50.044,8.997 C50.064,9.019 50.064,9.054 50.044,9.076 Z"/>
      <path d="M7.778 19.358C6.382 19.358 5.246 20.543 5.246 22 5.246 23.456 6.382 24.642 7.778 24.642 9.174 24.642 10.31 23.456 10.31 22 10.31 20.543 9.174 19.358 7.778 19.358zM7.778 22.956C7.273 22.956 6.862 22.526 6.862 22 6.862 21.474 7.273 21.044 7.778 21.044 8.283 21.044 8.694 21.474 8.694 22 8.694 22.526 8.283 22.956 7.778 22.956zM7.778 26.553C6.382 26.553 5.246 27.739 5.246 29.195 5.246 30.653 6.382 31.838 7.778 31.838 9.174 31.838 10.31 30.653 10.31 29.195 10.31 27.738 9.174 26.553 7.778 26.553zM7.778 30.15C7.273 30.15 6.862 29.722 6.862 29.194 6.862 28.668 7.273 28.239 7.778 28.239 8.283 28.239 8.694 28.668 8.694 29.194 8.693 29.723 8.283 30.15 7.778 30.15zM7.778 33.748C6.382 33.748 5.246 34.934 5.246 36.39 5.246 37.847 6.382 39.032 7.778 39.032 9.174 39.032 10.31 37.847 10.31 36.39 10.31 34.934 9.174 33.748 7.778 33.748zM7.778 37.346C7.273 37.346 6.862 36.917 6.862 36.39 6.862 35.864 7.273 35.435 7.778 35.435 8.283 35.435 8.694 35.864 8.694 36.39 8.693 36.917 8.283 37.346 7.778 37.346z"/>
      <path stroke="#888078" stroke-width=".5" d="M26.737 21.157L12.948 21.157C12.502 21.157 12.141 21.534 12.141 22 12.141 22.466 12.502 22.843 12.948 22.843L26.737 22.843C27.184 22.843 27.545 22.466 27.545 22 27.545 21.534 27.185 21.157 26.737 21.157zM24.324 28.354L12.815 28.354C12.443 28.354 12.141 28.731 12.141 29.196 12.141 29.663 12.442 30.04 12.815 30.04L24.324 30.04C24.696 30.04 24.997 29.663 24.997 29.196 24.997 28.73 24.696 28.354 24.324 28.354z"/>
      <path d="M10.9921875,11 L8.57910156,11 L7.22558594,5.75 C7.17545548,5.56315011 7.09000711,5.1769235 6.96923828,4.59130859 C6.84846945,4.00569369 6.77897145,3.61263121 6.76074219,3.41210938 C6.7333983,3.65820436 6.66503961,4.05354545 6.55566406,4.59814453 C6.44628852,5.14274361 6.36197946,5.53124884 6.30273438,5.76367188 L4.95605469,11 L2.54980469,11 L0,1.00585938 L2.08496094,1.00585938 L3.36328125,6.4609375 C3.58658966,7.468104 3.74837189,8.3408166 3.84863281,9.0791016 C3.8759767,8.8193346 3.93863883,8.4171577 4.03662109,7.8725586 C4.13460335,7.3279595 4.22688759,6.9052749 4.31347656,6.6044922 L5.76953125,1.00585938 L7.77246094,1.00585938 L9.22851562,6.6044922 C9.29231803,6.8551445 9.37206983,7.2379532 9.46777344,7.7529297 C9.56347704,8.2679062 9.63639298,8.7099591 9.68652344,9.0791016 C9.73209658,8.723631 9.80501252,8.2804389 9.90527344,7.7495117 C10.0055344,7.2185846 10.0966793,6.7890641 10.1787109,6.4609375 L11.4501953,1.00585938 L13.5351562,1.00585938 L10.9921875,11 Z M19.3505859,11 L18.6259766,8.6210938 L14.9824219,8.6210938 L14.2578125,11 L11.9746094,11 L15.5019531,0.96484375 L18.0927734,0.96484375 L21.6337891,11 L19.3505859,11 Z M18.1201172,6.84375 C17.450192,4.68814026 17.0730798,3.46907693 16.9887695,3.18652344 C16.9044592,2.90396994 16.8440757,2.68066488 16.8076172,2.51660156 C16.6572258,3.09993781 16.2265661,4.5423062 15.515625,6.84375 L18.1201172,6.84375 Z M27.6474609,11 L21.8916016,11 L21.8916016,1.00585938 L27.6474609,1.00585938 L27.6474609,2.7421875 L24.0107422,2.7421875 L24.0107422,4.93652344 L27.3945312,4.93652344 L27.3945312,6.6728516 L24.0107422,6.6728516 L24.0107422,9.25 L27.6474609,9.25 L27.6474609,11 Z M32.9775391,2.62597656 C32.180009,2.62597656 31.5625022,2.92561549 31.125,3.52490234 C30.6874978,4.12418919 30.46875,4.95930454 30.46875,6.0302734 C30.46875,8.2588002 31.3050047,9.3730469 32.9775391,9.3730469 C33.6793655,9.3730469 34.5292919,9.1975929 35.5273438,8.8466797 L35.5273438,10.6240234 C34.7070271,10.965822 33.7910207,11.1367188 32.7792969,11.1367188 C31.3255136,11.1367188 30.2135455,10.6958052 29.4433594,9.8139648 C28.6731732,8.9321245 28.2880859,7.6663494 28.2880859,6.0166016 C28.2880859,4.97753387 28.4772117,4.06722396 28.8554688,3.28564453 C29.2337258,2.5040651 29.7771774,1.90478724 30.4858398,1.48779297 C31.1945022,1.0707987 32.0250603,0.86230469 32.9775391,0.86230469 C33.948247,0.86230469 34.9234977,1.09700286 35.9033203,1.56640625 L35.2197266,3.2890625 C34.8460268,3.11132724 34.470054,2.95638087 34.0917969,2.82421875 C33.7135398,2.69205663 33.3421242,2.62597656 32.9775391,2.62597656 Z" transform="translate(4 5)"/>
    </g>
  </g>
</svg>
